<?xml version="1.0" encoding="UTF-8" standalone="no"?> <!-- Created with Vectornator for iOS (http://vectornator.io/) --><!DOCTYPE svg PUBLIC "-//W3C//DTD SVG 1.1//EN" "http://www.w3.org/Graphics/SVG/1.1/DTD/svg11.dtd">
<svg style="fill-rule:evenodd;clip-rule:evenodd;stroke-linecap:round;stroke-linejoin:round;" xmlns:vectornator="http://vectornator.io" xmlns:xlink="http://www.w3.org/1999/xlink" xmlns="http://www.w3.org/2000/svg" xml:space="preserve" version="1.1" viewBox="0 0 618.1 383.748">
<metadata>
<vectornator:setting key="DimensionsVisible" value="0"/>
<vectornator:setting key="PencilOnly" value="0"/>
<vectornator:setting key="SnapToPoints" value="0"/>
<vectornator:setting key="OutlineMode" value="0"/>
<vectornator:setting key="CMYKEnabledKey" value="0"/>
<vectornator:setting key="RulersVisible" value="1"/>
<vectornator:setting key="SnapToEdges" value="0"/>
<vectornator:setting key="GuidesVisible" value="0"/>
<vectornator:setting key="DisplayWhiteBackground" value="0"/>
<vectornator:setting key="doHistoryDisabled" value="0"/>
<vectornator:setting key="SnapToGuides" value="1"/>
<vectornator:setting key="TimeLapseWatermarkDisabled" value="0"/>
<vectornator:setting key="Units" value="Points"/>
<vectornator:setting key="DynamicGuides" value="1"/>
<vectornator:setting key="IsolateActiveLayer" value="0"/>
<vectornator:setting key="SnapToGrid" value="0"/>
</metadata>
<defs/>
<g id="Untitled" vectornator:layerName="Untitled">
<path d="M0.199951-6e-06L618.1-6e-06L618.1-6e-06L618.1+333.283L618.1+333.283L0.199951+333.283L0.199951+333.283L0.199951-6e-06L0.199951-6e-06Z" opacity="1" fill="#9be2e5"/>
</g>
<g id="g4150" vectornator:layerName="g4150">
<path d="M189.847+298.202L459.037-8.46783L772.445+381.038L189.847+298.202Z" opacity="1" fill="#80a4a4"/>
<path d="M459.037-8.46783L189.847+298.202L459.037+336.519L459.037-8.46783L459.037-8.46783Z" opacity="1" fill="#628989"/>
<path d="M459.037-8.46783L413.371+43.5621L433.703+40.432L440.979+55.6358L459.037+55.6358L481.146+64.5389L492.667+51.702L509.654+54.304L459.037-8.46783Z" opacity="1" fill="#e7e7e7"/>
<path d="M225.18+8.60162C225.18+8.60162-13.5993+288.425-31.5203+309.303L-31.5203+317.333L538.419+398.704L225.18+8.60162Z" opacity="1" fill="#87a9a9"/>
<path d="M-33.4134+302.701L-33.4134+318.047L225.18+354.449L225.18+8.60162C225.18+8.60162-7.77985+273.047-33.4134+302.701Z" opacity="1" fill="#628989"/>
<path d="M225.18+8.60162L154.514+89.0599L182.744+82.1764L196.066+109.145L225.18+89.0599L247.337+98.8518L259.132+80.3698L287.125+85.7392L225.18+8.60162Z" opacity="1" fill="#f2f2f2"/>
<path d="M225.18+8.60162L154.079+89.3112L182.744+82.1764L196.066+109.145L225.18+89.0599L225.18+8.60162Z" opacity="1" fill="#e0e0e0"/>
<path d="M457.554-8.46783L398.082+61.0504L426.26+52.4107L442.532+79.3079L459.037+55.6358L457.554-8.46783Z" opacity="1" fill="#cbcaca"/>
<path d="M373.007+342.473L373.007+357.819L674.42+373.027L645.269-71.2364C645.269-71.2364+398.64+312.819+373.007+342.473Z" opacity="1" fill="#5c8686"/>
</g>
<g id="Untitled_2" vectornator:layerName="Untitled">
<path d="M618.1+281.083C612.1+282.308+606.1+283.883+599.1+285.982C566.1+296.482+426.979+354.606+358.979+363.355C291.979+371.93+228.862+288.76+170.262+285.26C111.572+281.76-4.57955+313.39-4.57955+313.39L0+324.13L0+445.748L618.1+445.748L618.1+281.083Z" opacity="1" fill="#96cb78"/>
<path d="M-4.57955+302.916C1.42045+303.674+14.9093+306.581+21.9093+307.881C54.9093+314.381+152.8+352.095+220.8+357.511C287.8+362.82+346.625+298.64+405.225+296.474C463.915+294.307+593.718+355.391+593.718+355.391L618.1+367.747L617.9+414.386L-0.199951+414.386L-4.57955+302.916Z" opacity="1" fill="#77b155"/>
</g>
<g id="Layer 1" vectornator:layerName="Layer 1" visibility="hidden">
<path d="M248.127+425.386L288.197+263.169L319.125+425.386L248.127+425.386Z" opacity="1" fill="#6eb544"/>
<path d="M248.127+425.386L288.197+263.169L288.197+425.386L248.127+425.386Z" opacity="1" fill="#418319"/>
</g>
</svg>
