<?xml version="1.0" encoding="UTF-8" standalone="no"?> <!-- Created with Vectornator for iOS (http://vectornator.io/) --><!DOCTYPE svg PUBLIC "-//W3C//DTD SVG 1.1//EN" "http://www.w3.org/Graphics/SVG/1.1/DTD/svg11.dtd">
<svg style="fill-rule:evenodd;clip-rule:evenodd;stroke-linecap:round;stroke-linejoin:round;" xmlns:vectornator="http://vectornator.io" xmlns:xlink="http://www.w3.org/1999/xlink" xmlns="http://www.w3.org/2000/svg" xml:space="preserve" version="1.1" viewBox="0 0 666.667 488.64">
<metadata>
<vectornator:setting key="DimensionsVisible" value="0"/>
<vectornator:setting key="PencilOnly" value="0"/>
<vectornator:setting key="SnapToPoints" value="0"/>
<vectornator:setting key="OutlineMode" value="0"/>
<vectornator:setting key="CMYKEnabledKey" value="0"/>
<vectornator:setting key="RulersVisible" value="1"/>
<vectornator:setting key="SnapToEdges" value="0"/>
<vectornator:setting key="GuidesVisible" value="0"/>
<vectornator:setting key="DisplayWhiteBackground" value="0"/>
<vectornator:setting key="doHistoryDisabled" value="0"/>
<vectornator:setting key="SnapToGuides" value="1"/>
<vectornator:setting key="TimeLapseWatermarkDisabled" value="0"/>
<vectornator:setting key="Units" value="Points"/>
<vectornator:setting key="DynamicGuides" value="1"/>
<vectornator:setting key="IsolateActiveLayer" value="0"/>
<vectornator:setting key="SnapToGrid" value="0"/>
</metadata>
<defs/>
<g id="g10" vectornator:layerName="g10">
<g opacity="1">
<path d="M408.073+123.921L399.149+128.669L447.513+219.587C448.143+219.32+448.772+219.055+449.403+218.792C451.895+217.681+454.105+216.157+456.437+214.836L408.073+123.921" opacity="1" fill="#bfbfbf"/>
<path d="M453.401+216.64C454.413+216.035+455.413+215.416+456.437+214.836L408.073+123.921L404.96+125.579L453.401+216.64" opacity="1" fill="#9e9e9e"/>
<path d="M399.837+129.965L410.227+127.969L407.352+124.304L399.837+129.965Z" opacity="1" fill="#9e9e9e"/>
<path d="M457.136+224.852C455.425+224.852+454.039+223.464+454.039+221.753L454.039+204.253C454.039+202.541+455.425+201.155+457.136+201.155C458.848+201.155+460.235+202.541+460.235+204.253L460.235+221.753C460.235+223.464+458.848+224.852+457.136+224.852" opacity="1" fill="#2b2b2b"/>
<path d="M502.968+288.549L490.94+288.549L490.94+297.355L502.968+297.355C505.399+297.355+507.369+295.384+507.369+292.952C507.369+290.521+505.399+288.549+502.968+288.549" opacity="1" fill="#2b2b2b"/>
<path d="M502.619+296.441L458.348+213.22C457.713+212.027+456.233+211.575+455.04+212.209L446.115+216.956C445.543+217.261+445.113+217.781+444.924+218.401C444.735+219.021+444.8+219.692+445.104+220.264L489.376+303.487C489.68+304.059+490.2+304.487+490.82+304.676C491.053+304.748+491.295+304.783+491.535+304.783C491.932+304.783+492.327+304.687+492.683+304.497L501.608+299.749C502.801+299.115+503.253+297.633+502.619+296.441" opacity="1" fill="#3f3f3f"/>
<path d="M458.348+213.22C457.713+212.027+456.233+211.575+455.04+212.209L450.633+214.552L497.203+302.093L501.608+299.749C502.801+299.115+503.253+297.633+502.619+296.441L458.348+213.22" opacity="1" fill="#2b2b2b"/>
<path d="M399.149+130.137C398.625+130.137+398.117+129.855+397.853+129.359C397.472+128.643+397.744+127.755+398.46+127.373L407.385+122.627C408.1+122.245+408.989+122.517+409.369+123.233C409.749+123.948+409.479+124.837+408.763+125.217L399.837+129.965C399.619+130.083+399.383+130.137+399.149+130.137" opacity="1" fill="#191919"/>
<path d="M414.229+159.463L424.435+153.443C425.124+153.036+425.372+152.159+424.995+151.451L423.849+149.296C423.448+148.544+422.501+148.277+421.767+148.709L411.561+154.728C410.872+155.135+410.624+156.013+411.001+156.72L412.148+158.876C412.548+159.628+413.495+159.895+414.229+159.463" opacity="1" fill="#232323"/>
<path d="M403.617+139.072L413.823+133.053C414.512+132.647+414.76+131.768+414.384+131.061L413.237+128.907C412.837+128.155+411.889+127.888+411.156+128.32L400.951+134.339C400.26+134.745+400.013+135.624+400.389+136.331L401.536+138.487C401.936+139.239+402.883+139.505+403.617+139.072" opacity="1" fill="#232323"/>
<path d="M412.735+151.359C412.209+151.359+411.701+151.076+411.437+150.58L407.069+142.369C406.689+141.653+406.961+140.765+407.676+140.385C408.392+140.004+409.28+140.276+409.661+140.991L414.029+149.201C414.409+149.917+414.139+150.805+413.423+151.187C413.203+151.303+412.967+151.359+412.735+151.359" opacity="1" fill="#ffffff"/>
<path d="M441.263+204.489C440.737+204.489+440.229+204.207+439.965+203.711L438.527+201.005C438.147+200.291+438.417+199.401+439.133+199.021C439.848+198.64+440.736+198.912+441.117+199.627L442.557+202.332C442.937+203.047+442.667+203.936+441.951+204.316C441.731+204.433+441.495+204.489+441.263+204.489" opacity="1" fill="#ffffff"/>
<path d="M437.091+196.647C436.565+196.647+436.057+196.364+435.793+195.868L419.016+164.329C418.636+163.613+418.907+162.725+419.623+162.344C420.336+161.964+421.225+162.235+421.607+162.951L438.385+194.489C438.765+195.205+438.495+196.093+437.779+196.475C437.559+196.591+437.323+196.647+437.091+196.647" opacity="1" fill="#ffffff"/>
</g>
</g>
</svg>
