<?xml version="1.0" encoding="UTF-8" standalone="no"?> <!-- Created with Vectornator for iOS (http://vectornator.io/) --><!DOCTYPE svg PUBLIC "-//W3C//DTD SVG 1.1//EN" "http://www.w3.org/Graphics/SVG/1.1/DTD/svg11.dtd">
<svg style="fill-rule:evenodd;clip-rule:evenodd;stroke-linecap:round;stroke-linejoin:round;" xmlns:vectornator="http://vectornator.io" xmlns:xlink="http://www.w3.org/1999/xlink" xmlns="http://www.w3.org/2000/svg" xml:space="preserve" version="1.1" viewBox="0 0 30.64 291.525">
<metadata>
<vectornator:setting key="DimensionsVisible" value="0"/>
<vectornator:setting key="PencilOnly" value="0"/>
<vectornator:setting key="SnapToPoints" value="0"/>
<vectornator:setting key="OutlineMode" value="0"/>
<vectornator:setting key="CMYKEnabledKey" value="0"/>
<vectornator:setting key="RulersVisible" value="1"/>
<vectornator:setting key="SnapToEdges" value="0"/>
<vectornator:setting key="GuidesVisible" value="0"/>
<vectornator:setting key="DisplayWhiteBackground" value="0"/>
<vectornator:setting key="doHistoryDisabled" value="0"/>
<vectornator:setting key="SnapToGuides" value="1"/>
<vectornator:setting key="TimeLapseWatermarkDisabled" value="0"/>
<vectornator:setting key="Units" value="Points"/>
<vectornator:setting key="DynamicGuides" value="1"/>
<vectornator:setting key="IsolateActiveLayer" value="0"/>
<vectornator:setting key="SnapToGrid" value="0"/>
</metadata>
<defs/>
<g id="g10" vectornator:layerName="g10">
<g opacity="1">
<path d="M28.3772+138.019L23.7148+137.609C23.2868+137.572+22.9708+137.195+23.0082+136.768L24.4241+120.577C24.4627+120.149+24.8387+119.833+25.2667+119.871L29.9304+120.279C30.3584+120.316+30.6743+120.693+30.637+121.121L29.2198+137.311C29.1824+137.739+28.8051+138.056+28.3772+138.019" opacity="1" fill="#0c0c0c"/>
<path d="M27.1079+123.128L13.1995+121.767L13.4528+119.169L27.3626+120.532L27.1079+123.128" opacity="1" fill="#0c0c0c"/>
<path d="M9.7357+175.284L7.33586+175.073C6.67324+175.015+6.1826+174.431+6.24126+173.768L11.0156+119.209C11.0743+118.547+11.6582+118.056+12.3209+118.115L14.7207+118.325C15.3833+118.383+15.874+118.967+15.8166+119.629L11.041+174.188C10.9836+174.851+10.3997+175.341+9.73571+175.284" opacity="1" fill="#0c0c0c"/>
<path d="M18.1498+142.568C17.9085+142.568+17.6645+142.508+17.4392+142.383L4.84804+135.388C4.14008+134.995+3.88543+134.101+4.27874+133.393C4.67205+132.684+5.56532+132.429+6.27461+132.823L18.8644+139.817C19.5724+140.211+19.8271+141.104+19.4337+141.812C19.1658+142.295+18.6658+142.568+18.1498+142.568" opacity="1" fill="#303030"/>
<path d="M17.6379+148.415C17.3979+148.415+17.1526+148.356+16.9272+148.231L4.33739+141.236C3.6281+140.843+3.37345+139.949+3.76676+139.24C4.16007+138.532+5.05334+138.276+5.76263+138.671L18.3525+145.664C19.0604+146.057+19.3164+146.952+18.9218+147.66C18.6538+148.143+18.1538+148.415+17.6379+148.415" opacity="1" fill="#303030"/>
<path d="M17.1272+154.263C16.8859+154.263+16.6406+154.203+16.4153+154.077L3.82541+147.084C3.11746+146.689+2.86148+145.796+3.25479+145.088C3.64943+144.38+4.54137+144.124+5.25065+144.517L17.8405+151.512C18.5484+151.905+18.8044+152.799+18.4111+153.508C18.1418+153.991+17.6418+154.263+17.1272+154.263" opacity="1" fill="#303030"/>
<path d="M16.6153+160.111C16.3739+160.111+16.1286+160.051+15.9033+159.925L3.31347+152.931C2.60552+152.537+2.34953+151.644+2.74284+150.936C3.13748+150.227+4.03076+149.972+4.73871+150.365L17.3285+157.36C18.0365+157.753+18.2925+158.647+17.8992+159.355C17.6312+159.837+17.1299+160.111+16.6153+160.111" opacity="1" fill="#303030"/>
<path d="M16.1033+165.957C15.862+165.957+15.618+165.897+15.3913+165.772L2.80149+158.779C2.09354+158.385+1.83755+157.492+2.23219+156.783C2.6255+156.075+3.51878+155.819+4.22673+156.213L16.8166+163.207C17.5259+163.6+17.7805+164.493+17.3872+165.203C17.1192+165.685+16.6193+165.957+16.1033+165.957" opacity="1" fill="#303030"/>
<path d="M15.5913+171.805C15.35+171.805+15.106+171.745+14.8807+171.62L2.28951+164.625C1.58156+164.232+1.32691+163.339+1.72022+162.631C2.11352+161.923+3.0068+161.667+3.71475+162.06L16.3059+169.055C17.0139+169.448+17.2685+170.341+16.8752+171.049C16.6072+171.532+16.1073+171.805+15.5913+171.805" opacity="1" fill="#303030"/>
<path d="M15.0794+177.652C14.838+177.652+14.5941+177.593+14.3687+177.468L1.7789+170.473C1.06961+170.08+0.814964+169.187+1.20827+168.477C1.60158+167.769+2.49485+167.513+3.20414+167.908L15.794+174.903C16.5019+175.296+16.7566+176.189+16.3633+176.897C16.0953+177.38+15.5953+177.652+15.0794+177.652" opacity="1" fill="#303030"/>
<path d="M14.5674+183.5C14.3274+183.5+14.0821+183.44+13.8568+183.315L1.26692+176.321C0.558969+175.928+0.302986+175.033+0.696293+174.325C1.0896+173.617+1.98288+173.361+2.69216+173.755L15.282+180.749C15.99+181.143+16.2459+182.036+15.8513+182.745C15.5833+183.228+15.0833+183.5+14.5674+183.5" opacity="1" fill="#303030"/>
<path d="M9.87837+187.009L5.22267+186.601C4.3854+186.528+3.76544+185.791+3.83876+184.953L8.55845+131.027C8.63178+130.189+9.3704+129.569+10.2077+129.643L14.8634+130.051C15.7007+130.124+16.3193+130.861+16.246+131.699L11.5276+185.625C11.4543+186.463+10.7156+187.083+9.87837+187.009" opacity="1" fill="#0c0c0c"/>
<path d="M14.5714+183.5L14.4407+183.495L1.33892+182.347C0.532308+182.276-0.0649858+181.565+0.0056762+180.757C0.0763382+179.951+0.790958+179.353+1.59491+179.424L14.6967+180.571C15.5047+180.641+16.102+181.353+16.0313+182.16C15.9646+182.924+15.3233+183.5+14.5714+183.5" opacity="1" fill="#777777"/>
<path d="M15.082+177.652L14.9527+177.647L1.8509+176.5C1.04429+176.429+0.446991+175.717+0.517653+174.911C0.588315+174.103+1.2976+173.505+2.10688+173.576L15.2087+174.723C16.0166+174.793+16.6139+175.505+16.5433+176.313C16.4766+177.076+15.8353+177.652+15.082+177.652" opacity="1" fill="#777777"/>
<path d="M15.594+171.805L15.4647+171.799L2.36284+170.652C1.55623+170.581+0.958937+169.869+1.0296+169.063C1.10026+168.255+1.81088+167.659+2.61883+167.728L15.7206+168.876C16.5286+168.947+17.1245+169.657+17.0539+170.465C16.9872+171.229+16.3473+171.805+15.594+171.805" opacity="1" fill="#777777"/>
<path d="M16.106+165.957L15.9766+165.952L2.87482+164.805C2.06688+164.735+1.47091+164.023+1.54158+163.215C1.61091+162.408+2.31486+161.811+3.13081+161.881L16.2326+163.028C17.0392+163.099+17.6365+163.811+17.5659+164.617C17.4992+165.381+16.8592+165.957+16.106+165.957" opacity="1" fill="#777777"/>
<path d="M16.6179+160.109L16.4886+160.104L3.3868+158.957C2.57885+158.887+1.98156+158.175+2.05222+157.368C2.12288+156.56+2.83617+155.963+3.64278+156.033L16.7446+157.18C17.5512+157.251+18.1485+157.963+18.0778+158.771C18.0112+159.535+17.3699+160.109+16.6179+160.109" opacity="1" fill="#777777"/>
<path d="M17.1299+154.263L16.9992+154.257L3.89875+153.109C3.0908+153.039+2.4935+152.328+2.56417+151.52C2.63483+150.713+3.34812+150.117+4.15473+150.187L17.2565+151.333C18.0631+151.404+18.6604+152.116+18.5898+152.923C18.5231+153.687+17.8818+154.263+17.1299+154.263" opacity="1" fill="#777777"/>
<path d="M17.6419+148.415L17.5112+148.409L4.40939+147.263C3.60278+147.192+3.00548+146.48+3.07615+145.673C3.14681+144.865+3.85343+144.268+4.66537+144.339L17.7672+145.485C18.5751+145.556+19.1724+146.268+19.1018+147.075C19.0351+147.839+18.3938+148.415+17.6419+148.415" opacity="1" fill="#777777"/>
<path d="M18.1525+142.568L18.0232+142.561L4.92137+141.415C4.11475+141.344+3.51746+140.632+3.58812+139.825C3.65878+139.017+4.36807+138.421+5.17735+138.491L18.2792+139.639C19.0871+139.709+19.6831+140.42+19.6124+141.228C19.5471+141.992+18.9058+142.568+18.1525+142.568" opacity="1" fill="#777777"/>
<path d="M18.6644+136.72L18.5351+136.715L5.43331+135.568C4.62537+135.497+4.02941+134.785+4.10007+133.977C4.17073+133.171+4.88135+132.573+5.6893+132.644L18.7911+133.791C19.5977+133.861+20.195+134.573+20.1243+135.38C20.0577+136.144+19.4177+136.72+18.6644+136.72" opacity="1" fill="#777777"/>
</g>
</g>
</svg>
