<?xml version="1.0" encoding="UTF-8" standalone="no"?> <!-- Created with Vectornator for iOS (http://vectornator.io/) --><!DOCTYPE svg PUBLIC "-//W3C//DTD SVG 1.1//EN" "http://www.w3.org/Graphics/SVG/1.1/DTD/svg11.dtd">
<svg height="100%" style="fill-rule:evenodd;clip-rule:evenodd;stroke-linecap:round;stroke-linejoin:round;" xmlns:xlink="http://www.w3.org/1999/xlink" xmlns="http://www.w3.org/2000/svg" xml:space="preserve" width="100%" xmlns:vectornator="http://vectornator.io" version="1.1" viewBox="0 0 109.69 291.525">
<metadata>
<vectornator:setting key="DimensionsVisible" value="0"/>
<vectornator:setting key="PencilOnly" value="0"/>
<vectornator:setting key="SnapToPoints" value="0"/>
<vectornator:setting key="OutlineMode" value="0"/>
<vectornator:setting key="CMYKEnabledKey" value="0"/>
<vectornator:setting key="RulersVisible" value="1"/>
<vectornator:setting key="SnapToEdges" value="0"/>
<vectornator:setting key="GuidesVisible" value="0"/>
<vectornator:setting key="DisplayWhiteBackground" value="0"/>
<vectornator:setting key="doHistoryDisabled" value="0"/>
<vectornator:setting key="SnapToGuides" value="1"/>
<vectornator:setting key="TimeLapseWatermarkDisabled" value="0"/>
<vectornator:setting key="Units" value="Points"/>
<vectornator:setting key="DynamicGuides" value="1"/>
<vectornator:setting key="IsolateActiveLayer" value="0"/>
<vectornator:setting key="SnapToGrid" value="0"/>
</metadata>
<defs/>
<g id="g10" vectornator:layerName="g10">
<g opacity="1">
<path d="M10.3925+25.9214L1.46853+30.6694L49.8325+121.587C50.4619+121.32+51.0912+121.055+51.7219+120.792C54.2139+119.681+56.4245+118.157+58.7565+116.836L10.3925+25.9214" opacity="1" fill="#bfbfbf"/>
<path d="M55.7205+118.64C56.7325+118.035+57.7325+117.416+58.7565+116.836L10.3925+25.9214L7.27919+27.5787L55.7205+118.64" opacity="1" fill="#9e9e9e"/>
<path d="M2.15653+31.9654L12.5459+29.9694L9.67119+26.304L2.15653+31.9654Z" opacity="1" fill="#9e9e9e"/>
<path d="M59.4552+126.852C57.7445+126.852+56.3579+125.464+56.3579+123.753L56.3579+106.253C56.3579+104.541+57.7445+103.155+59.4552+103.155C61.1672+103.155+62.5539+104.541+62.5539+106.253L62.5539+123.753C62.5539+125.464+61.1672+126.852+59.4552+126.852" opacity="1" fill="#2b2b2b"/>
<path d="M105.287+190.549L93.2592+190.549L93.2592+199.355L105.287+199.355C107.718+199.355+109.689+197.384+109.689+194.952C109.689+192.521+107.718+190.549+105.287+190.549" opacity="1" fill="#2b2b2b"/>
<path d="M104.938+198.441L60.6672+115.22C60.0325+114.027+58.5525+113.575+57.3592+114.209L48.4338+118.956C47.8618+119.261+47.4325+119.781+47.2432+120.401C47.0538+121.021+47.1192+121.692+47.4232+122.264L91.6952+205.487C91.9992+206.059+92.5192+206.487+93.1392+206.676C93.3725+206.748+93.6138+206.783+93.8538+206.783C94.2512+206.783+94.6458+206.687+95.0018+206.497L103.927+201.749C105.121+201.115+105.573+199.633+104.938+198.441" opacity="1" fill="#3f3f3f"/>
<path d="M60.6672+115.22C60.0325+114.027+58.5525+113.575+57.3592+114.209L52.9525+116.552L99.5219+204.093L103.927+201.749C105.121+201.115+105.573+199.633+104.938+198.441L60.6672+115.22" opacity="1" fill="#2b2b2b"/>
<path d="M1.46854+32.1374C0.944537+32.1374+0.436537+31.8547+0.172537+31.3587C-0.208796+30.6427+0.0632036+29.7547+0.779204+29.3734L9.70454+24.6267C10.4192+24.2454+11.3085+24.5174+11.6885+25.2334C12.0685+25.948+11.7979+26.8374+11.0819+27.2174L2.15654+31.9654C1.93787+32.0827+1.70187+32.1374+1.46854+32.1374" opacity="1" fill="#191919"/>
<path d="M16.5485+61.4627L26.7538+55.4427C27.4432+55.036+27.6912+54.1587+27.3138+53.4507L26.1685+51.296C25.7672+50.544+24.8205+50.2774+24.0858+50.7094L13.8805+56.728C13.1912+57.1347+12.9432+58.0134+13.3205+58.72L14.4672+60.876C14.8672+61.628+15.8139+61.8947+16.5485+61.4627" opacity="1" fill="#232323"/>
<path d="M5.93651+41.072L16.1418+35.0534C16.8312+34.6467+17.0792+33.768+16.7032+33.0614L15.5565+30.9067C15.1565+30.1547+14.2085+29.888+13.4752+30.32L3.26984+36.3387C2.57917+36.7454+2.33251+37.624+2.70851+38.3307L3.85517+40.4867C4.25517+41.2387+5.20184+41.5054+5.93651+41.072" opacity="1" fill="#232323"/>
<path d="M15.0539+53.3587C14.5285+53.3587+14.0205+53.076+13.7565+52.58L9.38852+44.3693C9.00852+43.6533+9.28052+42.7653+9.99519+42.3853C10.7112+42.004+11.5992+42.276+11.9805+42.9907L16.3485+51.2013C16.7285+51.9173+16.4579+52.8053+15.7419+53.1867C15.5219+53.3027+15.2859+53.3587+15.0539+53.3587" opacity="1" fill="#ffffff"/>
<path d="M43.5818+106.489C43.0565+106.489+42.5485+106.207+42.2845+105.711L40.8458+103.005C40.4658+102.291+40.7365+101.401+41.4525+101.021C42.1672+100.64+43.0552+100.912+43.4365+101.627L44.8765+104.332C45.2565+105.047+44.9858+105.936+44.2698+106.316C44.0498+106.433+43.8138+106.489+43.5818+106.489" opacity="1" fill="#ffffff"/>
<path d="M39.4098+98.6467C38.8845+98.6467+38.3765+98.364+38.1125+97.868L21.3352+66.3294C20.9552+65.6134+21.2258+64.7254+21.9418+64.344C22.6552+63.964+23.5445+64.2347+23.9258+64.9507L40.7045+96.4894C41.0845+97.2054+40.8138+98.0934+40.0978+98.4747C39.8778+98.5907+39.6418+98.6467+39.4098+98.6467" opacity="1" fill="#ffffff"/>
</g>
</g>
</svg>
