<?xml version="1.0" encoding="UTF-8" standalone="no"?> <!-- Created with Vectornator for iOS (http://vectornator.io/) --><!DOCTYPE svg PUBLIC "-//W3C//DTD SVG 1.1//EN" "http://www.w3.org/Graphics/SVG/1.1/DTD/svg11.dtd">
<svg style="fill-rule:evenodd;clip-rule:evenodd;stroke-linecap:round;stroke-linejoin:round;" xmlns:vectornator="http://vectornator.io" xmlns:xlink="http://www.w3.org/1999/xlink" xmlns="http://www.w3.org/2000/svg" xml:space="preserve" version="1.1" viewBox="0 0 666.667 488.64">
<metadata>
<vectornator:setting key="DimensionsVisible" value="0"/>
<vectornator:setting key="PencilOnly" value="0"/>
<vectornator:setting key="SnapToPoints" value="0"/>
<vectornator:setting key="OutlineMode" value="0"/>
<vectornator:setting key="CMYKEnabledKey" value="0"/>
<vectornator:setting key="RulersVisible" value="1"/>
<vectornator:setting key="SnapToEdges" value="0"/>
<vectornator:setting key="GuidesVisible" value="0"/>
<vectornator:setting key="DisplayWhiteBackground" value="0"/>
<vectornator:setting key="doHistoryDisabled" value="0"/>
<vectornator:setting key="SnapToGuides" value="1"/>
<vectornator:setting key="TimeLapseWatermarkDisabled" value="0"/>
<vectornator:setting key="Units" value="Points"/>
<vectornator:setting key="DynamicGuides" value="1"/>
<vectornator:setting key="IsolateActiveLayer" value="0"/>
<vectornator:setting key="SnapToGrid" value="0"/>
</metadata>
<defs/>
<g id="g10" vectornator:layerName="g10">
<g opacity="1">
<path d="M322.271+236.019L317.608+235.609C317.18+235.572+316.864+235.195+316.901+234.768L318.317+218.577C318.356+218.149+318.732+217.833+319.16+217.871L323.824+218.279C324.252+218.316+324.568+218.693+324.531+219.121L323.113+235.311C323.076+235.739+322.699+236.056+322.271+236.019" opacity="1" fill="#0c0c0c"/>
<path d="M321.001+221.128L307.092+219.767L307.345+217.169L321.256+218.532L321.001+221.128" opacity="1" fill="#0c0c0c"/>
<path d="M303.628+273.284L301.228+273.073C300.565+273.015+300.075+272.431+300.133+271.768L304.908+217.209C304.967+216.547+305.551+216.056+306.213+216.115L308.613+216.325C309.276+216.383+309.767+216.967+309.709+217.629L304.933+272.188C304.876+272.851+304.292+273.341+303.628+273.284" opacity="1" fill="#0c0c0c"/>
<path d="M312.043+240.568C311.801+240.568+311.557+240.508+311.332+240.383L298.74+233.388C298.032+232.995+297.777+232.101+298.171+231.393C298.564+230.684+299.457+230.429+300.167+230.823L312.757+237.817C313.465+238.211+313.72+239.104+313.327+239.812C313.059+240.295+312.559+240.568+312.043+240.568" opacity="1" fill="#303030"/>
<path d="M311.531+246.415C311.291+246.415+311.045+246.356+310.82+246.231L298.229+239.236C297.52+238.843+297.265+237.949+297.659+237.24C298.052+236.532+298.945+236.276+299.655+236.671L312.245+243.664C312.953+244.057+313.209+244.952+312.815+245.66C312.547+246.143+312.047+246.415+311.531+246.415" opacity="1" fill="#303030"/>
<path d="M311.02+252.263C310.779+252.263+310.533+252.203+310.308+252.077L297.717+245.084C297.009+244.689+296.753+243.796+297.147+243.088C297.541+242.38+298.433+242.124+299.143+242.517L311.733+249.512C312.441+249.905+312.697+250.799+312.304+251.508C312.035+251.991+311.535+252.263+311.02+252.263" opacity="1" fill="#303030"/>
<path d="M310.508+258.111C310.267+258.111+310.021+258.051+309.796+257.925L297.205+250.931C296.497+250.537+296.241+249.644+296.635+248.936C297.029+248.227+297.923+247.972+298.631+248.365L311.221+255.36C311.929+255.753+312.185+256.647+311.792+257.355C311.524+257.837+311.023+258.111+310.508+258.111" opacity="1" fill="#303030"/>
<path d="M309.996+263.957C309.755+263.957+309.511+263.897+309.284+263.772L296.693+256.779C295.985+256.385+295.729+255.492+296.124+254.783C296.517+254.075+297.411+253.819+298.119+254.213L310.709+261.207C311.419+261.6+311.673+262.493+311.28+263.203C311.012+263.685+310.512+263.957+309.996+263.957" opacity="1" fill="#303030"/>
<path d="M309.484+269.805C309.243+269.805+308.999+269.745+308.773+269.62L296.181+262.625C295.473+262.232+295.219+261.339+295.612+260.631C296.005+259.923+296.899+259.667+297.607+260.06L310.199+267.055C310.907+267.448+311.161+268.341+310.768+269.049C310.5+269.532+310+269.805+309.484+269.805" opacity="1" fill="#303030"/>
<path d="M308.972+275.652C308.731+275.652+308.487+275.593+308.261+275.468L295.671+268.473C294.961+268.08+294.707+267.187+295.1+266.477C295.493+265.769+296.387+265.513+297.096+265.908L309.687+272.903C310.395+273.296+310.649+274.189+310.256+274.897C309.988+275.38+309.488+275.652+308.972+275.652" opacity="1" fill="#303030"/>
<path d="M308.46+281.5C308.22+281.5+307.975+281.44+307.749+281.315L295.159+274.321C294.451+273.928+294.195+273.033+294.588+272.325C294.981+271.617+295.875+271.361+296.584+271.755L309.175+278.749C309.883+279.143+310.139+280.036+309.744+280.745C309.476+281.228+308.976+281.5+308.46+281.5" opacity="1" fill="#303030"/>
<path d="M303.771+285.009L299.115+284.601C298.277+284.528+297.657+283.791+297.731+282.953L302.451+229.027C302.524+228.189+303.263+227.569+304.1+227.643L308.756+228.051C309.593+228.124+310.212+228.861+310.139+229.699L305.42+283.625C305.347+284.463+304.608+285.083+303.771+285.009" opacity="1" fill="#0c0c0c"/>
<path d="M308.464+281.5L308.333+281.495L295.231+280.347C294.424+280.276+293.827+279.565+293.897+278.757C293.968+277.951+294.683+277.353+295.487+277.424L308.589+278.571C309.397+278.641+309.995+279.353+309.924+280.16C309.857+280.924+309.216+281.5+308.464+281.5" opacity="1" fill="#777777"/>
<path d="M308.975+275.652L308.845+275.647L295.743+274.5C294.936+274.429+294.339+273.717+294.409+272.911C294.48+272.103+295.189+271.505+295.999+271.576L309.101+272.723C309.909+272.793+310.507+273.505+310.436+274.313C310.369+275.076+309.728+275.652+308.975+275.652" opacity="1" fill="#777777"/>
<path d="M309.487+269.805L309.357+269.799L296.255+268.652C295.448+268.581+294.851+267.869+294.921+267.063C294.992+266.255+295.703+265.659+296.511+265.728L309.613+266.876C310.421+266.947+311.017+267.657+310.947+268.465C310.88+269.229+310.24+269.805+309.487+269.805" opacity="1" fill="#777777"/>
<path d="M309.999+263.957L309.869+263.952L296.767+262.805C295.959+262.735+295.363+262.023+295.433+261.215C295.503+260.408+296.207+259.811+297.023+259.881L310.125+261.028C310.932+261.099+311.529+261.811+311.459+262.617C311.392+263.381+310.752+263.957+309.999+263.957" opacity="1" fill="#777777"/>
<path d="M310.511+258.109L310.381+258.104L297.279+256.957C296.471+256.887+295.873+256.175+295.944+255.368C296.015+254.56+296.728+253.963+297.535+254.033L310.637+255.18C311.444+255.251+312.041+255.963+311.971+256.771C311.904+257.535+311.263+258.109+310.511+258.109" opacity="1" fill="#777777"/>
<path d="M311.023+252.263L310.892+252.257L297.791+251.109C296.983+251.039+296.385+250.328+296.456+249.52C296.527+248.713+297.24+248.117+298.047+248.187L311.149+249.333C311.956+249.404+312.553+250.116+312.483+250.923C312.416+251.687+311.775+252.263+311.023+252.263" opacity="1" fill="#777777"/>
<path d="M311.535+246.415L311.404+246.409L298.301+245.263C297.495+245.192+296.897+244.48+296.968+243.673C297.039+242.865+297.745+242.268+298.557+242.339L311.66+243.485C312.468+243.556+313.065+244.268+312.995+245.075C312.928+245.839+312.287+246.415+311.535+246.415" opacity="1" fill="#777777"/>
<path d="M312.045+240.568L311.916+240.561L298.813+239.415C298.007+239.344+297.409+238.632+297.48+237.825C297.551+237.017+298.26+236.421+299.069+236.491L312.172+237.639C312.98+237.709+313.576+238.42+313.505+239.228C313.44+239.992+312.799+240.568+312.045+240.568" opacity="1" fill="#777777"/>
<path d="M312.557+234.72L312.428+234.715L299.325+233.568C298.517+233.497+297.921+232.785+297.992+231.977C298.063+231.171+298.773+230.573+299.581+230.644L312.684+231.791C313.491+231.861+314.088+232.573+314.017+233.38C313.951+234.144+313.311+234.72+312.557+234.72" opacity="1" fill="#777777"/>
</g>
</g>
</svg>
